<svg xmlns="http://www.w3.org/2000/svg" width="257.95" height="64.094" viewBox="0 0 257.95 64.094">
  <g id="Group_3" data-name="Group 3" transform="translate(-130 -1069.479)">
    <text id="thoughts." transform="translate(342 1121.573)" font-size="51" font-family="Helvetica"><tspan x="-211.905" y="0">thoughts.</tspan></text>
    <g id="Group_2" data-name="Group 2" transform="translate(-67.689 1830.463) rotate(-129)">
      <g id="Union_1" data-name="Union 1" transform="translate(273.427 772.669)" fill="none" stroke-linecap="round">
        <path d="M13.19,24.959A13.9,13.9,0,0,1,24.162,11.3l3.411-5.97,3.45,6.039A13.862,13.862,0,0,1,41.674,24.461a14.016,14.016,0,0,1-14,14.024l-.261,0A14.006,14.006,0,0,1,13.19,24.959Z" stroke="none"/>
        <path d="M 27.41195106506348 38.4871711730957 C 27.49851226806641 38.4871711730957 27.58630180358887 38.48641204833984 27.67320251464844 38.48490142822266 C 35.53920364379883 38.34719848632812 41.80770111083984 32.06880187988281 41.67450332641602 24.46109962463379 C 41.56446075439453 18.13433074951172 37.06158065795898 12.88062000274658 31.02351188659668 11.37024021148682 L 27.57330131530762 5.331600189208984 L 24.1622314453125 11.3017406463623 C 17.77827262878418 12.75916004180908 13.07562160491943 18.35871124267578 13.19040203094482 24.95880126953125 C 13.3221321105957 32.48246002197266 19.66366195678711 38.48772048950195 27.41195106506348 38.4871711730957 M 27.4108715057373 42.4871711730957 C 22.63062477111816 42.4871711730957 18.11330223083496 40.69651031494141 14.69006156921387 37.44464874267578 C 13.00976181030273 35.84846878051758 11.6790018081665 33.98194122314453 10.73473167419434 31.89689064025879 C 9.752202033996582 29.72735977172852 9.232821464538574 27.41660118103027 9.191011428833008 25.0288200378418 C 9.154561996459961 22.93280029296875 9.490511894226074 20.87294960021973 10.18950176239014 18.9060001373291 C 10.86258220672607 17.01200103759766 11.85428142547607 15.25259017944336 13.13708209991455 13.67664051055908 C 15.30537223815918 11.01282024383545 18.22730445861816 9.004364967346191 21.49763679504395 7.902351379394531 L 27.57330131530762 -2.731439590454102 L 33.70938873291016 8.008095741271973 C 34.98586654663086 8.462472915649414 36.20672225952148 9.055829048156738 37.35517120361328 9.780990600585938 C 38.98815155029297 10.81210041046143 40.43512344360352 12.08423042297363 41.65589141845703 13.56203079223633 C 42.89659118652344 15.06396007537842 43.87168121337891 16.73991012573242 44.55409240722656 18.54331970214844 C 45.26219177246094 20.41464042663574 45.63895034790039 22.38227081298828 45.67390060424805 24.39154052734375 C 45.71616363525391 26.80560111999512 45.26788330078125 29.15727996826172 44.34150314331055 31.38079071044922 C 43.45136260986328 33.51733016967773 42.16032028198242 35.44168090820312 40.50423049926758 37.10042190551758 C 38.85734176635742 38.74995040893555 36.93045043945312 40.055419921875 34.77708053588867 40.9805793762207 C 32.55429077148438 41.93558120727539 30.18775177001953 42.44149017333984 27.74321174621582 42.48429107666016 C 27.63277626037598 42.48620986938477 27.52173042297363 42.48716735839844 27.4122314453125 42.4871711730957 L 27.4122314453125 42.4871711730957 C 27.41193962097168 42.4871711730957 27.41116333007812 42.4871711730957 27.4108715057373 42.4871711730957 Z" stroke="none" fill="#000"/>
      </g>
    </g>
  </g>
</svg>